<svg xmlns="http://www.w3.org/2000/svg" width="64" height="64" shape-rendering="geometricPrecision" text-rendering="geometricPrecision" image-rendering="optimizeQuality" fill-rule="evenodd" clip-rule="evenodd" viewBox="0 0 640 640"><path d="M237.83 40.075C291.736 17.008 345.701 9.248 395.816 14.54c150.262 15.897 265.858 149.21 240.747 339.406-13.902 105.308-47.859 199.243-147.805 245.649-51.922 24.106-107.919 32.48-153.073 24.52-105.486-18.568-75.202-89.742-103.478-163.49-33.355-87.002-102.285-109.501-130.761 2.208-7.193 28.205-32.74 36.851-48.249 38.587C21.26 504.976-4.347 463.636.614 390.785 10.831 240.937 98.01 99.911 237.83 40.076zm-84.048 170.601c28.417 0 51.461 23.044 51.461 51.462 0 28.417-23.044 51.46-51.461 51.46-28.418 0-51.462-23.043-51.462-51.46 0-28.418 23.044-51.462 51.462-51.462zm340.35 122.777c16.95 0 30.698 13.737 30.698 30.686 0 16.96-13.748 30.709-30.697 30.709-16.95 0-30.698-13.748-30.698-30.71 0-16.948 13.749-30.685 30.698-30.685zM373.152 376.79c38.882 0 70.418 31.535 70.418 70.418 0 38.882-31.536 70.43-70.418 70.43-38.894 0-70.407-31.548-70.407-70.43 0-38.883 31.512-70.418 70.407-70.418zm-74.02-98.4c16.948 0 30.685 13.737 30.685 30.698 0 16.949-13.737 30.685-30.686 30.685-16.96 0-30.709-13.736-30.709-30.685 0-16.96 13.748-30.697 30.71-30.697zm153.473-148.064c38.883 0 70.418 31.536 70.418 70.418 0 38.882-31.536 70.418-70.418 70.418-38.894 0-70.43-31.536-70.43-70.418 0-38.882 31.536-70.418 70.43-70.418zm-159.793-9.933c23.93 0 43.324 19.405 43.324 43.335s-19.394 43.335-43.324 43.335-43.335-19.406-43.335-43.335c0-23.93 19.406-43.335 43.335-43.335z"/></svg>