<svg xmlns="http://www.w3.org/2000/svg" viewBox="0 0 3333.32 2397.79" shape-rendering="geometricPrecision" text-rendering="geometricPrecision" image-rendering="optimizeQuality" fill-rule="evenodd" clip-rule="evenodd"><path d="M2373.97 574.06c142.62 39.25 292.67 49.91 449.89 32.11 38.46-4.35 76.26-9.51 112.83-14.25 175.23-22.72 321.77-35.79 373.81 95.54 91.89 232.02-116.18 734.45-225.72 937.58-225.7 418.55-675.5 886.89-1195.85 747.75-81.23-21.72-154.17-56.9-219.31-104.72 170.85-95.21 305.97-241.39 410.31-413.39l-.31.61c129.48 7.03 263.83 75.39 387.11 147.52 8.82-162.59-148.11-270.57-288.06-337.77 112.23-252.02 171.63-534.98 190.11-787.52 5.73-78.25 8.51-184.91 5.19-303.46zM70.9 176.69c42.23-40.17 106.33-50.6 178.92-46.07 136.57 8.52 277.62 50.52 409.86 86.16 287.78 77.61 569.43 52.3 843.63-74.41 36.95-17.07 72.97-34.74 107.9-51.56 167.37-80.66 309.32-142.2 404.7-28.34 168.48 201.15 127.08 771.48 84.97 1010.46-86.77 492.43-380.72 1108.69-946.1 1142.01-299.89 17.67-555.7-151.12-776.07-469.85-140.15-216.94-241.48-439.97-303.14-669.17C30.58 908.69-66.7 307.65 70.92 176.71zM350.99 930.5c-51.75-13.48-81.77-30.33-91.81-50.23-39.91-79.15 289.25-279.25 521.39-95.39 330.34 256.85-312.38 180.34-429.58 145.61zm534.09 772.67c-87.56-62.54-134.68-139.87-160.02-244.8 289.44 146.35 560.53 135.93 812.73-65.53-10 89.14-39.03 169.26-88.91 239.51-147.38 207.54-362.65 214.49-563.8 70.82zm934.44-887.69c48.44-22.66 74.91-44.67 81.17-66.06 24.89-85.08-335.12-222.13-530.05.81-278.24 312.54 339.92 120.67 448.87 65.26zm644 325.87c136.73-109.61 323.98-87.33 454 19.78 33.12 27.3 124.04 107.02 71.61 150.79-14.38 11.99-38.17 18.83-71.39 20.46-80.84 9.25-198.52-7.54-292.49-46.26-73.56-30.28-129.32-70.13-161.72-144.76z"/></svg>