<svg xmlns="http://www.w3.org/2000/svg" viewBox="0 0 1333.34 1320.67" shape-rendering="geometricPrecision" text-rendering="geometricPrecision" image-rendering="optimizeQuality" fill-rule="evenodd" clip-rule="evenodd"><path d="M809.74 778.41l1.42-267.94 56.5-82.96-1.27-89.07c-.04-2.49-2.06-4.55-4.55-4.55H687V231.42l238.72-96.71L687 38.86V18.84c0-25.12-38.2-25.12-38.2 0v315.05H484.02c-2.49 0-4.52 2.06-4.55 4.55l-1.27 89.07 59.96 81.28v269.62h-70.38v-80.26H332.49l.48-91.06 56.5-82.96-1.28-89.07c-.03-2.48-2.06-4.55-4.55-4.55H5.82c-2.5 0-4.52 2.06-4.56 4.56l-1.27 89.07 59.96 81.28v715.25H547.5v-273.6c0-68.19 55.79-123.98 123.98-123.98h.01c68.19 0 123.99 55.79 123.99 123.98v273.6H1273.01l3.82-713.58 56.5-82.96-1.28-89.07c-.04-2.48-2.06-4.55-4.55-4.55H949.68c-2.49 0-4.52 2.06-4.55 4.56l-1.28 89.07 59.96 81.28v92.74H870.27v80.26h-60.56zM672.92 420.52c28.12 0 50.91 22.79 50.91 50.91 0 28.11-22.8 50.91-50.91 50.91-28.11 0-50.91-22.8-50.91-50.91 0-28.12 22.8-50.91 50.91-50.91zm465.68 79.44c28.12 0 50.91 22.8 50.91 50.91 0 28.12-22.79 50.91-50.91 50.91-28.11 0-50.91-22.8-50.91-50.91 0-28.11 22.8-50.91 50.91-50.91zM614.92 669.01h116.01c1.6 0 2.91 1.31 2.91 2.91V775.5c0 1.6-1.31 2.92-2.91 2.92H614.92c-1.6 0-2.91-1.31-2.91-2.92V671.92c0-1.6 1.31-2.91 2.91-2.91zM194.73 499.96c28.11 0 50.91 22.8 50.91 50.91 0 28.12-22.8 50.91-50.91 50.91-28.12 0-50.91-22.8-50.91-50.91 0-28.11 22.79-50.91 50.91-50.91z"/></svg>